<svg width="200" height="50" viewBox="0 0 200 50" fill="none" xmlns="http://www.w3.org/2000/svg">
<rect width="200" height="50" rx="25" fill="#1992E3"/>
<path d="M160.983 25.9757C161.971 25.9757 162.937 25.6827 163.758 25.1339C164.579 24.5852 165.219 23.8051 165.597 22.8925C165.975 21.9799 166.074 20.9757 165.882 20.0069C165.689 19.0381 165.213 18.1482 164.515 17.4497C163.816 16.7512 162.926 16.2756 161.958 16.0829C160.989 15.8901 159.984 15.9891 159.072 16.3671C158.159 16.7451 157.379 17.3852 156.83 18.2065C156.282 19.0279 155.989 19.9935 155.989 20.9813C155.989 22.3059 156.515 23.5762 157.452 24.5128C158.388 25.4495 159.659 25.9757 160.983 25.9757ZM160.983 18.4841C161.477 18.4841 161.96 18.6305 162.371 18.9049C162.781 19.1793 163.101 19.5693 163.29 20.0256C163.479 20.4819 163.529 20.984 163.432 21.4684C163.336 21.9529 163.098 22.3978 162.749 22.7471C162.4 23.0963 161.955 23.3341 161.47 23.4305C160.986 23.5268 160.484 23.4774 160.028 23.2884C159.571 23.0994 159.181 22.7793 158.907 22.3686C158.632 21.958 158.486 21.4752 158.486 20.9813C158.486 20.319 158.749 19.6838 159.217 19.2155C159.686 18.7472 160.321 18.4841 160.983 18.4841ZM165.978 38.4991L175.966 40.9313V27.8273C175.966 27.0231 175.707 26.2403 175.227 25.5947C174.748 24.9491 174.073 24.475 173.303 24.2426L170.681 23.3686C170.873 22.5898 170.97 21.7908 170.972 20.9888C170.972 18.3396 169.92 15.7989 168.046 13.9256C166.173 12.0524 163.632 11 160.983 11C158.334 11 155.793 12.0524 153.92 13.9256C152.047 15.7989 150.994 18.3396 150.994 20.9888C150.998 21.4956 151.04 22.0015 151.119 22.5021C150.552 22.276 149.938 22.1923 149.332 22.2584C148.725 22.3244 148.143 22.5382 147.638 22.8809C147.133 23.2237 146.72 23.685 146.434 24.2245C146.148 24.764 145.999 25.3652 146 25.9757V38.152L155.968 41L165.978 38.4991ZM155.685 15.6922C157.093 14.3047 158.992 13.5296 160.968 13.5357C162.944 13.5419 164.838 14.3287 166.237 15.7249C167.636 17.1212 168.426 19.0136 168.436 20.9899C168.446 22.9663 167.675 24.8665 166.29 26.2766L160.983 31.4695L155.685 26.2866C154.281 24.8816 153.491 22.9762 153.491 20.9894C153.491 19.0026 154.281 17.0971 155.685 15.6922ZM148.497 25.9757C148.496 25.7697 148.546 25.5667 148.643 25.3852C148.74 25.2037 148.882 25.0495 149.054 24.9368C149.234 24.8185 149.442 24.7485 149.657 24.7336C149.872 24.7188 150.088 24.7595 150.283 24.8519L152.073 25.4987C152.552 26.4473 153.179 27.3138 153.93 28.0658L160.983 34.9655L168.046 28.0571C168.741 27.3635 169.33 26.5718 169.794 25.7072L172.563 26.6324C172.823 26.707 173.053 26.8644 173.216 27.0809C173.379 27.2974 173.468 27.5611 173.468 27.8323V37.7574L165.978 35.927L156.014 38.4241L148.497 36.2716V25.9757Z" fill="white"/>
<path d="M31.8693 18.4545L35.9176 30.3011H36.081L40.1293 18.4545H42.5014L37.267 33H34.7315L29.4972 18.4545H31.8693ZM44.4315 33V22.0909H46.555V33H44.4315ZM45.5039 20.4077C45.1346 20.4077 44.8174 20.2846 44.5522 20.0384C44.2918 19.7874 44.1616 19.4891 44.1616 19.1435C44.1616 18.7931 44.2918 18.4948 44.5522 18.2486C44.8174 17.9976 45.1346 17.8722 45.5039 17.8722C45.8732 17.8722 46.1881 17.9976 46.4485 18.2486C46.7137 18.4948 46.8462 18.7931 46.8462 19.1435C46.8462 19.4891 46.7137 19.7874 46.4485 20.0384C46.1881 20.2846 45.8732 20.4077 45.5039 20.4077ZM54.1136 33.2202C53.0388 33.2202 52.1132 32.9905 51.3366 32.5312C50.5649 32.0672 49.9683 31.4162 49.5469 30.5781C49.1302 29.7353 48.9219 28.7481 48.9219 27.6165C48.9219 26.4991 49.1302 25.5142 49.5469 24.6619C49.9683 23.8097 50.5554 23.1444 51.3082 22.6662C52.0658 22.188 52.9512 21.9489 53.9645 21.9489C54.58 21.9489 55.1766 22.0507 55.7543 22.2543C56.3319 22.4579 56.8504 22.7775 57.3097 23.2131C57.7689 23.6487 58.1312 24.2145 58.3963 24.9105C58.6615 25.6018 58.794 26.4422 58.794 27.4318V28.1847H50.1222V26.5938H56.7131C56.7131 26.035 56.5994 25.5402 56.3722 25.1094C56.1449 24.6738 55.8253 24.3305 55.4134 24.0795C55.0062 23.8286 54.5279 23.7031 53.9787 23.7031C53.3821 23.7031 52.8613 23.8499 52.4162 24.1435C51.9759 24.4323 51.6349 24.8111 51.3935 25.2798C51.1567 25.7438 51.0384 26.2481 51.0384 26.7926V28.0355C51.0384 28.7647 51.1662 29.3849 51.4219 29.8963C51.6823 30.4077 52.0445 30.7983 52.5085 31.0682C52.9725 31.3333 53.5147 31.4659 54.1349 31.4659C54.5374 31.4659 54.9044 31.4091 55.2358 31.2955C55.5672 31.1771 55.8537 31.0019 56.0952 30.7699C56.3366 30.5379 56.5213 30.2514 56.6491 29.9105L58.6591 30.2727C58.4981 30.8646 58.2093 31.383 57.7926 31.8281C57.3807 32.2685 56.8622 32.6117 56.2372 32.858C55.617 33.0994 54.9091 33.2202 54.1136 33.2202ZM63.4957 33L60.2855 22.0909H62.4801L64.6179 30.1023H64.7244L66.8693 22.0909H69.0639L71.1946 30.0668H71.3011L73.4247 22.0909H75.6193L72.4162 33H70.25L68.0341 25.1236H67.8707L65.6548 33H63.4957ZM82.9276 33V22.0909H84.9659V23.8665H85.1009C85.3281 23.2652 85.6998 22.7964 86.2159 22.4602C86.732 22.1193 87.3499 21.9489 88.0696 21.9489C88.7988 21.9489 89.4096 22.1193 89.902 22.4602C90.3991 22.8011 90.7661 23.2699 91.0028 23.8665H91.1165C91.3769 23.2841 91.7912 22.8201 92.3594 22.4744C92.9276 22.1241 93.6046 21.9489 94.3906 21.9489C95.3802 21.9489 96.1875 22.259 96.8125 22.8793C97.4422 23.4995 97.7571 24.4347 97.7571 25.6847V33H95.6335V25.8835C95.6335 25.1449 95.4323 24.6098 95.0298 24.2784C94.6274 23.947 94.1468 23.7812 93.5881 23.7812C92.8968 23.7812 92.3594 23.9943 91.9759 24.4205C91.5923 24.8419 91.4006 25.384 91.4006 26.0469V33H89.2841V25.7486C89.2841 25.1567 89.0994 24.6809 88.7301 24.321C88.3608 23.9612 87.8802 23.7812 87.2884 23.7812C86.8859 23.7812 86.5142 23.8878 86.1733 24.1009C85.8371 24.3092 85.5649 24.6004 85.3565 24.9744C85.1529 25.3485 85.0511 25.7817 85.0511 26.2741V33H82.9276ZM103.778 33.2415C103.087 33.2415 102.462 33.1136 101.903 32.858C101.344 32.5975 100.902 32.2211 100.575 31.7287C100.253 31.2363 100.092 30.6326 100.092 29.9176C100.092 29.3021 100.21 28.7955 100.447 28.3977C100.684 28 101.003 27.6851 101.406 27.4531C101.808 27.2211 102.258 27.0459 102.755 26.9276C103.252 26.8092 103.759 26.7192 104.275 26.6577C104.929 26.5819 105.459 26.5204 105.866 26.473C106.273 26.4209 106.569 26.3381 106.754 26.2244C106.939 26.1108 107.031 25.9261 107.031 25.6705V25.6207C107.031 25.0005 106.856 24.5199 106.505 24.179C106.16 23.8381 105.644 23.6676 104.957 23.6676C104.242 23.6676 103.679 23.8262 103.267 24.1435C102.859 24.456 102.578 24.804 102.422 25.1875L100.426 24.733C100.663 24.0701 101.008 23.535 101.463 23.1278C101.922 22.7159 102.45 22.4176 103.047 22.233C103.643 22.0436 104.27 21.9489 104.929 21.9489C105.364 21.9489 105.826 22.0009 106.314 22.1051C106.806 22.2045 107.265 22.3892 107.691 22.6591C108.122 22.929 108.475 23.3149 108.75 23.8168C109.024 24.3139 109.162 24.9602 109.162 25.7557V33H107.088V31.5085H107.002C106.865 31.7831 106.659 32.053 106.385 32.3182C106.11 32.5833 105.757 32.8035 105.326 32.9787C104.895 33.1539 104.379 33.2415 103.778 33.2415ZM104.24 31.5369C104.827 31.5369 105.329 31.4209 105.745 31.1889C106.167 30.9569 106.486 30.6539 106.704 30.2798C106.927 29.901 107.038 29.4962 107.038 29.0653V27.6591C106.962 27.7348 106.815 27.8059 106.598 27.8722C106.385 27.9337 106.141 27.9882 105.866 28.0355C105.592 28.0781 105.324 28.1184 105.064 28.1562C104.803 28.1894 104.585 28.2178 104.41 28.2415C103.998 28.2936 103.622 28.3812 103.281 28.5043C102.945 28.6274 102.675 28.8049 102.471 29.0369C102.272 29.2642 102.173 29.5672 102.173 29.946C102.173 30.4716 102.367 30.8693 102.755 31.1392C103.144 31.4044 103.638 31.5369 104.24 31.5369ZM111.99 37.0909V22.0909H114.064V23.8594H114.241C114.365 23.6321 114.542 23.3693 114.774 23.071C115.006 22.7727 115.328 22.5123 115.74 22.2898C116.152 22.0625 116.696 21.9489 117.374 21.9489C118.254 21.9489 119.04 22.1714 119.732 22.6165C120.423 23.0616 120.965 23.7031 121.358 24.5412C121.756 25.3793 121.955 26.3878 121.955 27.5668C121.955 28.7457 121.758 29.7566 121.365 30.5994C120.972 31.4375 120.432 32.0838 119.746 32.5384C119.059 32.9882 118.276 33.2131 117.395 33.2131C116.732 33.2131 116.19 33.1018 115.768 32.8793C115.352 32.6567 115.025 32.3963 114.788 32.098C114.552 31.7997 114.369 31.5346 114.241 31.3026H114.114V37.0909H111.99ZM114.071 27.5455C114.071 28.3125 114.182 28.9848 114.405 29.5625C114.627 30.1402 114.949 30.5923 115.371 30.919C115.792 31.241 116.308 31.402 116.919 31.402C117.554 31.402 118.084 31.2339 118.51 30.8977C118.936 30.5568 119.258 30.0952 119.476 29.5128C119.698 28.9304 119.81 28.2746 119.81 27.5455C119.81 26.8258 119.701 26.1795 119.483 25.6065C119.27 25.0336 118.948 24.5814 118.517 24.25C118.091 23.9186 117.558 23.7528 116.919 23.7528C116.304 23.7528 115.783 23.9115 115.357 24.2287C114.935 24.5459 114.616 24.9886 114.398 25.5568C114.18 26.125 114.071 26.7879 114.071 27.5455Z" fill="white"/>
</svg>
