<svg width="123" height="63" viewBox="0 0 123 63" fill="none" xmlns="http://www.w3.org/2000/svg">
<g filter="url(#filter0_d_1_1677)">
<rect x="4" width="114.459" height="55" rx="27.5" fill="white"/>
<rect x="4.5" y="0.5" width="113.459" height="54" rx="27" stroke="#718096" stroke-opacity="0.4"/>
</g>
<path d="M36.7036 18.3952C33.8816 18.3952 31.5938 20.683 31.5938 23.505C31.5938 26.327 33.8816 28.6148 36.7036 28.6148C39.5256 28.6148 41.8134 26.327 41.8134 23.505C41.8134 20.683 39.5256 18.3952 36.7036 18.3952ZM36.7036 25.8276C35.4227 25.8276 34.381 24.7854 34.381 23.505C34.381 22.2218 35.4203 21.1824 36.7036 21.1824C37.9869 21.1824 39.0262 22.2241 39.0262 23.505C39.0262 24.7883 37.9869 25.8276 36.7036 25.8276ZM36.7036 11.8918C28.4931 11.8918 21.8387 18.5462 21.8387 26.7567C21.8387 34.9672 28.4931 41.6216 36.7036 41.6216C44.9141 41.6216 51.5685 34.9672 51.5685 26.7567C51.5685 18.5462 44.9141 11.8918 36.7036 11.8918ZM36.7036 38.8344C33.9902 38.8344 31.4916 37.9239 29.4744 36.4078C30.4789 34.4795 32.4299 33.2601 34.6248 33.2601H38.7876C40.9796 33.2601 42.9283 34.48 43.9369 36.4078C41.9179 37.9228 39.4153 38.8344 36.7036 38.8344ZM46.0057 34.4504C44.438 32 41.7669 30.4729 38.7824 30.4729H34.6248C31.6426 30.4729 28.9721 31.9971 27.4014 34.4493C25.6688 32.3601 24.6259 29.6774 24.6259 26.7567C24.6259 20.0965 30.044 14.679 36.7036 14.679C43.3632 14.679 48.7813 20.0971 48.7813 26.7567C48.7813 29.6774 47.7361 32.3601 46.0057 34.4504Z" fill="#1992E3"/>
<path d="M69.4061 36.0475C69.4061 37.0737 70.238 37.9056 71.2642 37.9056H95.4196C96.4458 37.9056 97.2777 37.0737 97.2777 36.0475C97.2777 35.0213 96.4458 34.1894 95.4196 34.1894H71.2642C70.238 34.1894 69.4061 35.0213 69.4061 36.0475ZM69.4061 26.757C69.4061 27.7832 70.238 28.6151 71.2642 28.6151H95.4196C96.4458 28.6151 97.2777 27.7832 97.2777 26.757C97.2777 25.7308 96.4458 24.8989 95.4196 24.8989H71.2642C70.238 24.8989 69.4061 25.7308 69.4061 26.757ZM71.2642 15.6083C70.238 15.6083 69.4061 16.4402 69.4061 17.4664C69.4061 18.4927 70.238 19.3246 71.2642 19.3246H95.4196C96.4458 19.3246 97.2777 18.4927 97.2777 17.4664C97.2777 16.4402 96.4458 15.6083 95.4196 15.6083H71.2642Z" fill="#1992E3"/>
<defs>
<filter id="filter0_d_1_1677" x="0" y="0" width="122.459" height="63" filterUnits="userSpaceOnUse" color-interpolation-filters="sRGB">
<feFlood flood-opacity="0" result="BackgroundImageFix"/>
<feColorMatrix in="SourceAlpha" type="matrix" values="0 0 0 0 0 0 0 0 0 0 0 0 0 0 0 0 0 0 127 0" result="hardAlpha"/>
<feOffset dy="4"/>
<feGaussianBlur stdDeviation="2"/>
<feComposite in2="hardAlpha" operator="out"/>
<feColorMatrix type="matrix" values="0 0 0 0 0 0 0 0 0 0 0 0 0 0 0 0 0 0 0.25 0"/>
<feBlend mode="normal" in2="BackgroundImageFix" result="effect1_dropShadow_1_1677"/>
<feBlend mode="normal" in="SourceGraphic" in2="effect1_dropShadow_1_1677" result="shape"/>
</filter>
</defs>
</svg>
